<?xml version="1.0" encoding="iso-8859-1"?>
<!-- Generator: Adobe Illustrator 19.0.0, SVG Export Plug-In . SVG Version: 6.00 Build 0)  -->
<svg version="1.1" id="Capa_1" xmlns="http://www.w3.org/2000/svg" xmlns:xlink="http://www.w3.org/1999/xlink" x="0px" y="0px"
	 viewBox="0 0 373.043 373.043" style="enable-background:new 0 0 373.043 373.043;" xml:space="preserve">
<g>
	<g>
		<path d="M369.963,242.925c-6.746-24.831-24.086-45.43-47.403-56.312V55.733c-0.044-19.895-16.185-36-36.08-36H61.36
			c-19.864,0.044-35.956,16.136-36,36v88H8c-4.418,0-8,3.582-8,8v49.6c0,4.418,3.582,8,8,8h17.36v43.44
			c0.044,19.864,16.136,35.956,36,36H201.2c12.661,46.603,60.703,74.118,107.306,61.458
			C355.108,337.57,382.624,289.527,369.963,242.925z M61.36,35.733h225.12c11.046-0.007,20.005,8.942,20.012,19.988
			c0.007,11.046-8.942,20.005-19.988,20.012c-0.008,0-0.016,0-0.025,0H61.36c-11.046,0-20-8.954-20-20S50.314,35.733,61.36,35.733z
			 M16,193.333v-33.6h88c9.278,0,16.8,7.522,16.8,16.8s-7.522,16.8-16.8,16.8H16z M200.739,244.273
			c-1.794,7.093-2.687,14.384-2.659,21.7c0,2.32,0.16,4.64,0.4,6.88h-0.08H61.36c-11.027-0.044-19.956-8.973-20-20v-43.52H104
			c18.115,0,32.8-14.685,32.8-32.8s-14.685-32.8-32.8-32.8H41.36v-58.08c5.914,3.969,12.877,6.086,20,6.08h225.12
			c7.15,0.022,14.143-2.096,20.08-6.08v95.52C259.914,169.376,212.536,197.626,200.739,244.273z M285.6,337.493l-0.08,0.08
			c-39.499,0-71.52-32.021-71.52-71.52s32.021-71.52,71.52-71.52c39.499,0,71.52,32.021,71.52,71.52
			C356.952,305.471,325.019,337.405,285.6,337.493z"/>
	</g>
</g>
<g>
	<g>
		<path d="M270.16,47.733H77.68c-4.418,0-8,3.582-8,8s3.582,8,8,8h192.48c4.418,0,8-3.582,8-8S274.578,47.733,270.16,47.733z"/>
	</g>
</g>
<g>
	<g>
		<path d="M311.44,271.573c-2.568-3.746-6.147-6.687-10.32-8.48c-3.164-1.414-6.46-2.513-9.84-3.28v-20.16
			c3.945,1.327,7.667,3.242,11.04,5.68c2.385,1.6,5.615,0.964,7.215-1.421c0.022-0.033,0.044-0.066,0.065-0.099
			c1.594-2.412,0.952-5.657-1.44-7.28c-5.067-3.628-10.805-6.212-16.88-7.6v-16c0-3.314-2.686-6-6-6s-6,2.686-6,6l0.32,0.08v16
			c-4.054,0.75-7.9,2.36-11.28,4.72c-4.873,3.449-7.837,8.992-8,14.96c0.005,2.968,0.836,5.877,2.4,8.4
			c2.341,3.524,5.646,6.3,9.52,8c2.45,1.103,4.994,1.986,7.6,2.64v22.88c-4.838-1.433-9.349-3.797-13.28-6.96
			c-2.279-1.867-5.637-1.546-7.52,0.72c-1.804,2.312-1.45,5.639,0.8,7.52c5.717,4.634,12.423,7.891,19.6,9.52v12.32
			c0,3.314,2.686,6,6,6s6-2.686,6-6v-12c4.932-0.684,9.625-2.55,13.68-5.44c5.359-3.586,8.641-9.554,8.8-16
			C313.916,277.213,313.058,274.194,311.44,271.573z M279.6,257.253c-1.798-0.77-3.492-1.765-5.04-2.96
			c-1.097-0.689-2.048-1.586-2.8-2.64c-0.524-0.866-0.775-1.87-0.72-2.88c0.149-2.49,1.451-4.768,3.52-6.16
			c1.534-1.096,3.236-1.934,5.04-2.48V257.253z M299.6,287.653c-2.262,1.569-4.821,2.658-7.52,3.2v-20.24
			c2.644,0.783,5.173,1.913,7.52,3.36h0.32c1.259,0.761,2.327,1.801,3.12,3.04c0.64,0.973,0.974,2.115,0.96,3.28
			C303.823,283.317,302.18,286.065,299.6,287.653z"/>
	</g>
</g>
<g>
</g>
<g>
</g>
<g>
</g>
<g>
</g>
<g>
</g>
<g>
</g>
<g>
</g>
<g>
</g>
<g>
</g>
<g>
</g>
<g>
</g>
<g>
</g>
<g>
</g>
<g>
</g>
<g>
</g>
</svg>
