<svg xmlns="http://www.w3.org/2000/svg"><symbol id="diamond" viewBox="0 0 512 512"><path d="M507.647 168.678L387.206 46.556a15.119 15.119 0 0 0-10.764-4.502H135.56a15.12 15.12 0 0 0-10.764 4.502L4.355 168.678c-5.559 5.636-5.829 14.606-.618 20.566l240.882 275.535a15.117 15.117 0 0 0 22.764 0l240.882-275.535c5.209-5.958 4.94-14.928-.618-20.566zM370.117 72.29l90.622 91.886h-73.437L341.423 72.29h28.694zm-165.743 0h103.254l45.879 91.886H158.495l45.879-91.886zm-62.491 0h28.694l-45.879 91.886H51.262l90.621-91.886zM48.417 194.413h75.79l77.717 175.591L48.417 194.413zm207.584 223.062l-98.728-223.063H354.73l-98.729 223.063zm54.076-47.472l77.717-175.591h75.79L310.077 370.003z"/></symbol><symbol id="facebook" viewBox="0 0 60.734 60.733"><path d="M57.378.001H3.352A3.352 3.352 0 0 0 0 3.353v54.026a3.353 3.353 0 0 0 3.352 3.354h29.086V37.214h-7.914v-9.167h7.914v-6.76c0-7.843 4.789-12.116 11.787-12.116 3.355 0 6.232.251 7.071.36v8.198l-4.854.002c-3.805 0-4.539 1.809-4.539 4.462v5.851h9.078l-1.187 9.166h-7.892v23.52h15.475a3.355 3.355 0 0 0 3.355-3.351V3.351a3.352 3.352 0 0 0-3.354-3.35z" data-original="#000000" class="active-path" data-old_color="#000000" fill="#909192"/></symbol><symbol id="hanger" viewBox="0 0 512 512"><path d="M491.797 348.594L266.656 229.656V214.64c.094-.023.188-.055.297-.078 35.469-8.781 59.281-30.875 59.281-59.281 0-32.742-26.547-59.281-59.281-59.281-30.234 0-56.516 22.125-59.109 51.773a8.232 8.232 0 0 0-.125 1.391c0 .055-.016.109-.016.172 0 5.891 4.781 10.664 10.672 10.664s10.672-4.773 10.672-10.664h.062c.859-9.227 5.344-15.844 9.281-19.969 7.281-7.648 17.703-12.031 28.562-12.031 20.922 0 37.938 17.023 37.938 37.945 0 7.984-3.328 15.305-9.922 21.758-7.703 7.539-19.156 13.352-33.141 16.812 0 0-16.203 5-16.484 5.102v3.711h-.016v26.992L20.219 348.594C8.141 354.812 0 366.5 0 379.906 0 399.844 18.016 416 40.234 416H471.781C494 416 512 399.844 512 379.906c0-13.406-8.125-25.094-20.203-31.312zm-20.016 46.062H40.235c-10.234 0-18.891-6.75-18.891-14.75 0-4.938 3.234-9.562 8.656-12.375l.094-.031.094-.062 225.797-119.289 225.844 119.289.094.062.094.031c5.422 2.812 8.656 7.438 8.656 12.375-.001 8-8.657 14.75-18.892 14.75z"/></symbol><symbol id="instagram" viewBox="0 0 97.395 97.395"><path d="M12.501 0h72.393c6.875 0 12.5 5.09 12.5 12.5v72.395c0 7.41-5.625 12.5-12.5 12.5H12.501C5.624 97.395 0 92.305 0 84.895V12.5C0 5.09 5.624 0 12.501 0zm58.447 10.821a4.395 4.395 0 0 0-4.383 4.385v10.495a4.396 4.396 0 0 0 4.383 4.385h11.008a4.398 4.398 0 0 0 4.385-4.385V15.206a4.397 4.397 0 0 0-4.385-4.385H70.948zm15.439 30.367h-8.572a28.486 28.486 0 0 1 1.25 8.355c0 16.2-13.556 29.332-30.275 29.332-16.718 0-30.272-13.132-30.272-29.332 0-2.904.438-5.708 1.25-8.355h-8.945v41.141a3.884 3.884 0 0 0 3.872 3.872h67.822a3.883 3.883 0 0 0 3.872-3.872V41.188h-.002zM48.789 29.533c-10.802 0-19.56 8.485-19.56 18.953s8.758 18.953 19.56 18.953c10.803 0 19.562-8.485 19.562-18.953s-8.758-18.953-19.562-18.953z" data-original="#000000" class="active-path" data-old_color="#000000" fill="#909192"/></symbol><symbol id="rubbish" viewBox="0 0 512 512"><path d="M425.298 51.358h-91.455V16.696c0-9.22-7.475-16.696-16.696-16.696H194.855c-9.22 0-16.696 7.475-16.696 16.696v34.662H86.704c-9.22 0-16.696 7.475-16.696 16.696v51.357c0 9.22 7.475 16.696 16.696 16.696h5.072l15.26 359.906c.378 8.937 7.735 15.988 16.68 15.988h264.568c8.946 0 16.302-7.051 16.68-15.989l15.259-359.906h5.073c9.22 0 16.696-7.475 16.696-16.696V68.054c.002-9.222-7.473-16.696-16.694-16.696zM211.551 33.391h88.9v17.967h-88.9V33.391zm160.732 445.218H139.719l-14.522-342.502h261.606l-14.52 342.502zm36.319-375.894H103.4V84.749h305.202v17.966z" fill="#666"/><path d="M188.835 187.304c-9.22 0-16.696 7.475-16.696 16.696v206.714c0 9.22 7.475 16.696 16.696 16.696 9.22 0 16.696-7.475 16.696-16.696V204c-.001-9.221-7.476-16.696-16.696-16.696zM255.998 187.304c-9.22 0-16.696 7.475-16.696 16.696v206.714c0 9.22 7.474 16.696 16.696 16.696 9.22 0 16.696-7.475 16.696-16.696V204c-.001-9.221-7.476-16.696-16.696-16.696zM323.161 187.304c-9.22 0-16.696 7.475-16.696 16.696v206.714c0 9.22 7.475 16.696 16.696 16.696s16.696-7.475 16.696-16.696V204c0-9.221-7.475-16.696-16.696-16.696z" fill="#666"/></symbol><symbol id="vk" viewBox="0 0 14.171 14.171"><path d="M13.268 0H.905C.405 0 0 .405 0 .904v12.363c0 .499.405.904.905.904h12.362a.904.904 0 0 0 .904-.904V.904A.902.902 0 0 0 13.268 0zm-1.513 8.635c.259.264.821.707.719 1.158-.094.414-.712.263-1.312.287-.685.029-1.091.044-1.503-.287-.194-.157-.308-.343-.494-.551-.169-.188-.382-.525-.672-.512-.521.026-.358.752-.543 1.247-2.896.456-4.059-1.333-5.085-3.069-.497-.841-1.215-2.647-1.215-2.647l2.048-.007s.657 1.195.831 1.503c.148.262.311.47.479.704.141.194.364.574.608.543.397-.051.469-1.591.223-2.107-.098-.209-.333-.282-.576-.353.082-.518 2.297-.626 2.655-.224.52.584-.36 2.21.352 2.684 1-.524 1.854-2.718 1.854-2.718l2.398.015s-.375 1.186-.768 1.712c-.229.308-.989.994-.959 1.503.024.403.642.795.96 1.119z" fill="#909192"/></symbol><symbol id="wallet" viewBox="0 0 373.043 373.043"><path d="M369.963 242.925a87.44 87.44 0 0 0-47.403-56.312V55.733c-.044-19.895-16.185-36-36.08-36H61.36c-19.864.044-35.956 16.136-36 36v88H8a8 8 0 0 0-8 8v49.6a8 8 0 0 0 8 8h17.36v43.44c.044 19.864 16.136 35.956 36 36H201.2c12.661 46.603 60.703 74.118 107.306 61.458 46.602-12.661 74.118-60.704 61.457-107.306zM61.36 35.733h225.12c11.046-.007 20.005 8.942 20.012 19.988.007 11.046-8.942 20.005-19.988 20.012H61.36c-11.046 0-20-8.954-20-20s8.954-20 20-20zM16 193.333v-33.6h88c9.278 0 16.8 7.522 16.8 16.8s-7.522 16.8-16.8 16.8H16zm184.739 50.94a87.139 87.139 0 0 0-2.659 21.7c0 2.32.16 4.64.4 6.88H61.36c-11.027-.044-19.956-8.973-20-20v-43.52H104c18.115 0 32.8-14.685 32.8-32.8s-14.685-32.8-32.8-32.8H41.36v-58.08a35.836 35.836 0 0 0 20 6.08h225.12a35.84 35.84 0 0 0 20.08-6.08v95.52c-46.646-11.797-94.024 16.453-105.821 63.1zm84.861 93.22l-.08.08c-39.499 0-71.52-32.021-71.52-71.52s32.021-71.52 71.52-71.52c39.499 0 71.52 32.021 71.52 71.52-.088 39.418-32.021 71.352-71.44 71.44z"/><path d="M270.16 47.733H77.68a8 8 0 0 0 0 16h192.48a8 8 0 0 0 0-16zM311.44 271.573a24 24 0 0 0-10.32-8.48 52.703 52.703 0 0 0-9.84-3.28v-20.16a41.352 41.352 0 0 1 11.04 5.68 5.2 5.2 0 0 0 7.215-1.421l.065-.099a5.28 5.28 0 0 0-1.44-7.28 46.965 46.965 0 0 0-16.88-7.6v-16a6 6 0 1 0-12 0l.32.08v16c-4.054.75-7.9 2.36-11.28 4.72a18.962 18.962 0 0 0-8 14.96 15.995 15.995 0 0 0 2.4 8.4 22.08 22.08 0 0 0 9.52 8 45.482 45.482 0 0 0 7.6 2.64v22.88a38.728 38.728 0 0 1-13.28-6.96 5.36 5.36 0 0 0-7.52.72 5.44 5.44 0 0 0 .8 7.52 47.998 47.998 0 0 0 19.6 9.52v12.32a6 6 0 1 0 12 0v-12a30.878 30.878 0 0 0 13.68-5.44 19.841 19.841 0 0 0 8.8-16 16.641 16.641 0 0 0-2.48-8.72zm-31.84-14.32a23.188 23.188 0 0 1-5.04-2.96 9.923 9.923 0 0 1-2.8-2.64 5.035 5.035 0 0 1-.72-2.88 8 8 0 0 1 3.52-6.16 17.28 17.28 0 0 1 5.04-2.48v17.12zm20 30.4a20.157 20.157 0 0 1-7.52 3.2v-20.24a31.224 31.224 0 0 1 7.52 3.36h.32a9.6 9.6 0 0 1 3.12 3.04 5.84 5.84 0 0 1 .96 3.28 9.28 9.28 0 0 1-4.4 7.36z"/></symbol></svg>